<?xml version="1.0" encoding="utf-8"?>
<!-- Generator: Adobe Illustrator 25.4.1, SVG Export Plug-In . SVG Version: 6.00 Build 0)  -->
<svg version="1.1" id="Layer_1" xmlns="http://www.w3.org/2000/svg" xmlns:xlink="http://www.w3.org/1999/xlink" x="0px" y="0px"
	 viewBox="0 0 16 16" style="enable-background:new 0 0 16 16;" xml:space="preserve">
<g>
	<g>
		<g>
			<path d="M11.37,7.82c-0.03-0.22,0.09-0.39,0.16-0.56c0.43-1.03,0.96-2.02,1.14-3.14c0.06-0.35-0.04-0.62-0.29-0.85
				c-0.58-0.53-1.31-0.81-1.99-1.18c-0.28-0.15-0.56-0.3-0.84-0.46C9.43,1.54,9.28,1.45,9.29,1.3c0.01-0.17,0.2-0.2,0.33-0.25
				c0.92-0.31,1.87-0.46,2.83-0.57c0.81-0.09,1.63-0.15,2.44-0.01c0.83,0.15,0.98,0.43,0.67,1.21c-0.32,0.82-0.78,1.55-1.26,2.28
				c-0.79,1.22-1.66,2.39-2.58,3.52C11.63,7.61,11.54,7.75,11.37,7.82z"/>
		</g>
	</g>
	<g>
		<path d="M3.75,15.8c-0.05-0.37,0.15-0.65,0.28-0.95c0.72-1.74,1.62-3.42,1.93-5.31C6.06,8.96,5.9,8.5,5.47,8.11
			C4.49,7.22,3.26,6.86,2.12,6.23C1.64,5.98,1.16,5.73,0.69,5.46C0.48,5.34,0.23,5.18,0.24,4.92C0.25,4.63,0.57,4.57,0.79,4.5
			c1.55-0.52,3.16-0.9,4.78-1.08C6.94,3.26,8.32,3.16,9.7,3.4c1.41,0.25,1.66,0.72,1.14,2.05C10.3,6.83,9.51,8.07,8.71,9.31
			c-1.34,2.06-2.8,4.04-4.36,5.95C4.18,15.46,4.04,15.69,3.75,15.8z"/>
	</g>
</g>
</svg>
